<svg xmlns="http://www.w3.org/2000/svg" viewBox="0 0 900 660" font-family="-apple-system, Segoe UI, Roboto, Helvetica, Arial, sans-serif">
  <defs>
    <marker id="arrow" markerWidth="10" markerHeight="10" refX="8" refY="3" orient="auto" markerUnits="strokeWidth">
      <path d="M0,0 L8,3 L0,6 z" fill="#6B7280"/>
    </marker>
  </defs>
  <style>
    .box { rx: 10; stroke-width: 1.5; }
    .t { fill:#1F2937; font-size:13px; }
    .tb { fill:#1F2937; font-size:14px; font-weight:700; }
    .lbl { fill:#6B7280; font-size:11.5px; font-style:italic; }
    .edge { stroke:#6B7280; stroke-width:1.5; fill:none; }
  </style>

  <text x="450" y="30" text-anchor="middle" class="tb" font-size="17">Fivetran + dbt Metadata Service — DQaaS grounding layer</text>

  <!-- Sources -->
  <rect x="330" y="56" width="240" height="48" rx="10" fill="#E8EEF7" stroke="#4A6FA5" stroke-width="1.5"/>
  <text x="450" y="85" text-anchor="middle" class="t">Source systems — GitHub · Salesforce · Postgres · SaaS</text>

  <!-- arrow to warehouse -->
  <path class="edge" d="M450,104 L450,150" marker-end="url(#arrow)"/>
  <text x="460" y="130" class="lbl">Fivetran connectors</text>

  <!-- Warehouse + dbt -->
  <rect x="300" y="152" width="300" height="50" rx="10" fill="#E3F0FF" stroke="#2B6CB0" stroke-width="1.5"/>
  <text x="450" y="182" text-anchor="middle" class="t">Warehouse — Snowflake / BigQuery / Databricks</text>
  <rect x="630" y="152" width="190" height="50" rx="10" fill="#FFEDE3" stroke="#D35400" stroke-width="1.5"/>
  <text x="725" y="173" text-anchor="middle" class="t">dbt Platform</text>
  <text x="725" y="191" text-anchor="middle" class="lbl">models · tests · freshness</text>
  <path class="edge" d="M630,177 L602,177" marker-end="url(#arrow)"/>

  <!-- feeders into metadata-service -->
  <path class="edge" d="M450,202 L450,250" marker-end="url(#arrow)"/>
  <text x="460" y="228" class="lbl">Fivetran REST API · dbt run artifacts</text>

  <!-- metadata-service container -->
  <rect x="120" y="252" width="660" height="150" rx="14" fill="#F5F7FA" stroke="#6B7280" stroke-width="1.5" stroke-dasharray="6 4"/>
  <text x="140" y="276" class="tb">metadata-service</text>

  <rect x="150" y="296" width="160" height="80" rx="10" fill="#FFFFFF" stroke="#3B82F6" stroke-width="1.5"/>
  <text x="230" y="330" text-anchor="middle" class="t">Extract</text>
  <text x="230" y="348" text-anchor="middle" class="lbl">Fivetran + dbt</text>

  <rect x="350" y="296" width="180" height="80" rx="10" fill="#FFFFFF" stroke="#3B82F6" stroke-width="1.5"/>
  <text x="440" y="330" text-anchor="middle" class="t">Normalize + join</text>
  <text x="440" y="348" text-anchor="middle" class="lbl">deterministic match</text>

  <rect x="570" y="296" width="180" height="80" rx="10" fill="#FEF9E7" stroke="#B7950B" stroke-width="1.5"/>
  <text x="660" y="330" text-anchor="middle" class="t">Snapshot</text>
  <text x="660" y="348" text-anchor="middle" class="lbl">latest.json</text>

  <path class="edge" d="M310,336 L348,336" marker-end="url(#arrow)"/>
  <path class="edge" d="M530,336 L568,336" marker-end="url(#arrow)"/>

  <!-- outputs -->
  <path class="edge" d="M450,402 L450,440" marker-end="url(#arrow)"/>
  <rect x="300" y="442" width="140" height="46" rx="10" fill="#EDE7F6" stroke="#6B46C1" stroke-width="1.5"/>
  <text x="370" y="470" text-anchor="middle" class="t">MCP server</text>
  <rect x="460" y="442" width="140" height="46" rx="10" fill="#EDE7F6" stroke="#6B46C1" stroke-width="1.5"/>
  <text x="530" y="470" text-anchor="middle" class="t">REST API</text>

  <!-- agent -->
  <path class="edge" d="M450,488 L450,524" marker-end="url(#arrow)"/>
  <rect x="250" y="526" width="240" height="50" rx="10" fill="#E8F8F0" stroke="#1E8449" stroke-width="1.5"/>
  <text x="370" y="556" text-anchor="middle" class="t">Capgemini DQ Agent</text>

  <!-- actions -->
  <path class="edge" d="M490,551 L520,551" marker-end="url(#arrow)"/>
  <rect x="520" y="526" width="250" height="50" rx="10" fill="#FDEDEC" stroke="#C0392B" stroke-width="1.5"/>
  <text x="645" y="550" text-anchor="middle" class="t">Act on findings</text>
  <text x="645" y="568" text-anchor="middle" class="lbl">dbt test PRs · alerts · tickets</text>

  <text x="450" y="612" text-anchor="middle" class="lbl">read-mostly · stateless between snapshots · deterministic join (no fuzzy matching)</text>
</svg>
